<mxfile host="app.diagrams.net" agent="Mozilla/5.0 (Windows NT 10.0; Win64; x64) AppleWebKit/537.36 (KHTML, like Gecko) Chrome/130.0.0.0 Safari/537.36" version="24.8.4">
  <diagram name="Seite-1" id="uJF8WzIQmdPLeI6v2VDX">
    <mxGraphModel dx="519" dy="517" grid="1" gridSize="2" guides="1" tooltips="1" connect="1" arrows="1" fold="1" page="1" pageScale="1" pageWidth="827" pageHeight="1169" math="1" shadow="0">
      <root>
        <mxCell id="0" />
        <mxCell id="1" parent="0" />
        <mxCell id="lXGe02pRSFepRyIFXycR-117" value="" style="group" parent="1" vertex="1" connectable="0">
          <mxGeometry x="120" y="42" width="80" height="12" as="geometry" />
        </mxCell>
        <mxCell id="lXGe02pRSFepRyIFXycR-118" value="" style="rounded=0;whiteSpace=wrap;html=1;movable=1;resizable=1;rotatable=1;deletable=1;editable=1;locked=0;connectable=0;container=0;rotation=0;points=[];glass=0;fillColor=#000000;" parent="lXGe02pRSFepRyIFXycR-117" vertex="1">
          <mxGeometry x="20" width="40" height="12" as="geometry" />
        </mxCell>
        <mxCell id="lXGe02pRSFepRyIFXycR-119" value="" style="endArrow=none;html=1;rounded=0;exitX=1;exitY=0.5;exitDx=0;exitDy=0;movable=1;resizable=1;rotatable=1;deletable=1;editable=1;locked=0;connectable=1;" parent="lXGe02pRSFepRyIFXycR-117" source="lXGe02pRSFepRyIFXycR-118" edge="1">
          <mxGeometry width="50" height="50" relative="1" as="geometry">
            <mxPoint x="80" y="76" as="sourcePoint" />
            <mxPoint x="80" y="6" as="targetPoint" />
          </mxGeometry>
        </mxCell>
        <mxCell id="lXGe02pRSFepRyIFXycR-120" value="" style="endArrow=none;html=1;rounded=0;exitX=0;exitY=0.5;exitDx=0;exitDy=0;movable=1;resizable=1;rotatable=1;deletable=1;editable=1;locked=0;connectable=1;" parent="lXGe02pRSFepRyIFXycR-117" source="lXGe02pRSFepRyIFXycR-118" edge="1">
          <mxGeometry width="50" height="50" relative="1" as="geometry">
            <mxPoint x="15" y="6" as="sourcePoint" />
            <mxPoint y="6" as="targetPoint" />
          </mxGeometry>
        </mxCell>
        <mxCell id="lXGe02pRSFepRyIFXycR-121" value="" style="group" parent="1" vertex="1" connectable="0">
          <mxGeometry x="24" y="42" width="80" height="12" as="geometry" />
        </mxCell>
        <mxCell id="lXGe02pRSFepRyIFXycR-122" value="" style="rounded=0;whiteSpace=wrap;html=1;movable=1;resizable=1;rotatable=1;deletable=1;editable=1;locked=0;connectable=0;container=0;rotation=0;points=[];glass=0;fillColor=none;" parent="lXGe02pRSFepRyIFXycR-121" vertex="1">
          <mxGeometry x="20" width="40" height="12" as="geometry" />
        </mxCell>
        <mxCell id="lXGe02pRSFepRyIFXycR-123" value="" style="endArrow=none;html=1;rounded=0;exitX=1;exitY=0.5;exitDx=0;exitDy=0;movable=1;resizable=1;rotatable=1;deletable=1;editable=1;locked=0;connectable=1;" parent="lXGe02pRSFepRyIFXycR-121" source="lXGe02pRSFepRyIFXycR-122" edge="1">
          <mxGeometry width="50" height="50" relative="1" as="geometry">
            <mxPoint x="80" y="76" as="sourcePoint" />
            <mxPoint x="80" y="6" as="targetPoint" />
          </mxGeometry>
        </mxCell>
        <mxCell id="lXGe02pRSFepRyIFXycR-124" value="" style="endArrow=none;html=1;rounded=0;exitX=0;exitY=0.5;exitDx=0;exitDy=0;movable=1;resizable=1;rotatable=1;deletable=1;editable=1;locked=0;connectable=1;" parent="lXGe02pRSFepRyIFXycR-121" source="lXGe02pRSFepRyIFXycR-122" edge="1">
          <mxGeometry width="50" height="50" relative="1" as="geometry">
            <mxPoint x="15" y="6" as="sourcePoint" />
            <mxPoint y="6" as="targetPoint" />
          </mxGeometry>
        </mxCell>
        <mxCell id="lXGe02pRSFepRyIFXycR-125" value="" style="group" parent="1" vertex="1" connectable="0">
          <mxGeometry x="208" y="34" width="80" height="28" as="geometry" />
        </mxCell>
        <mxCell id="lXGe02pRSFepRyIFXycR-126" value="" style="endArrow=none;html=1;rounded=0;movable=1;resizable=1;rotatable=1;deletable=1;editable=1;locked=0;connectable=1;" parent="lXGe02pRSFepRyIFXycR-125" edge="1">
          <mxGeometry width="50" height="50" relative="1" as="geometry">
            <mxPoint x="44" y="14" as="sourcePoint" />
            <mxPoint x="80" y="14" as="targetPoint" />
          </mxGeometry>
        </mxCell>
        <mxCell id="lXGe02pRSFepRyIFXycR-127" value="" style="endArrow=none;html=1;rounded=0;movable=1;resizable=1;rotatable=1;deletable=1;editable=1;locked=0;connectable=1;" parent="lXGe02pRSFepRyIFXycR-125" edge="1">
          <mxGeometry width="50" height="50" relative="1" as="geometry">
            <mxPoint x="36" y="14" as="sourcePoint" />
            <mxPoint y="14" as="targetPoint" />
          </mxGeometry>
        </mxCell>
        <mxCell id="lXGe02pRSFepRyIFXycR-128" value="" style="endArrow=none;html=1;rounded=0;movable=1;resizable=1;rotatable=1;deletable=1;editable=1;locked=0;connectable=1;" parent="lXGe02pRSFepRyIFXycR-125" edge="1">
          <mxGeometry width="50" height="50" relative="1" as="geometry">
            <mxPoint x="36" y="28" as="sourcePoint" />
            <mxPoint x="36" as="targetPoint" />
          </mxGeometry>
        </mxCell>
        <mxCell id="lXGe02pRSFepRyIFXycR-129" value="" style="endArrow=none;html=1;rounded=0;movable=1;resizable=1;rotatable=1;deletable=1;editable=1;locked=0;connectable=1;" parent="lXGe02pRSFepRyIFXycR-125" edge="1">
          <mxGeometry width="50" height="50" relative="1" as="geometry">
            <mxPoint x="44" y="28" as="sourcePoint" />
            <mxPoint x="44" as="targetPoint" />
          </mxGeometry>
        </mxCell>
        <mxCell id="lXGe02pRSFepRyIFXycR-130" value="" style="group" parent="1" vertex="1" connectable="0">
          <mxGeometry x="208" y="74" width="80" height="28" as="geometry" />
        </mxCell>
        <mxCell id="lXGe02pRSFepRyIFXycR-131" value="" style="endArrow=none;html=1;rounded=0;movable=1;resizable=1;rotatable=1;deletable=1;editable=1;locked=0;connectable=1;" parent="lXGe02pRSFepRyIFXycR-130" edge="1">
          <mxGeometry width="50" height="50" relative="1" as="geometry">
            <mxPoint x="44" y="14" as="sourcePoint" />
            <mxPoint x="80" y="14" as="targetPoint" />
          </mxGeometry>
        </mxCell>
        <mxCell id="lXGe02pRSFepRyIFXycR-132" value="" style="endArrow=none;html=1;rounded=0;movable=1;resizable=1;rotatable=1;deletable=1;editable=1;locked=0;connectable=1;" parent="lXGe02pRSFepRyIFXycR-130" edge="1">
          <mxGeometry width="50" height="50" relative="1" as="geometry">
            <mxPoint x="34" y="14" as="sourcePoint" />
            <mxPoint y="14" as="targetPoint" />
          </mxGeometry>
        </mxCell>
        <mxCell id="lXGe02pRSFepRyIFXycR-133" value="" style="endArrow=none;html=1;rounded=0;movable=1;resizable=1;rotatable=1;deletable=1;editable=1;locked=0;connectable=1;" parent="lXGe02pRSFepRyIFXycR-130" edge="1">
          <mxGeometry width="50" height="50" relative="1" as="geometry">
            <mxPoint x="44" y="28" as="sourcePoint" />
            <mxPoint x="44" as="targetPoint" />
          </mxGeometry>
        </mxCell>
        <mxCell id="lXGe02pRSFepRyIFXycR-134" value="" style="rounded=0;whiteSpace=wrap;html=1;fillColor=none;connectable=0;" parent="lXGe02pRSFepRyIFXycR-130" vertex="1">
          <mxGeometry x="34" width="4" height="28" as="geometry" />
        </mxCell>
        <mxCell id="lXGe02pRSFepRyIFXycR-135" value="" style="endArrow=none;html=1;rounded=0;movable=1;resizable=1;rotatable=1;deletable=1;editable=1;locked=0;connectable=1;" parent="lXGe02pRSFepRyIFXycR-130" edge="1">
          <mxGeometry width="50" height="50" relative="1" as="geometry">
            <mxPoint x="28" y="6" as="sourcePoint" />
            <mxPoint x="28" y="2" as="targetPoint" />
          </mxGeometry>
        </mxCell>
        <mxCell id="lXGe02pRSFepRyIFXycR-136" value="" style="endArrow=none;html=1;rounded=0;movable=1;resizable=1;rotatable=1;deletable=1;editable=1;locked=0;connectable=1;" parent="lXGe02pRSFepRyIFXycR-130" edge="1">
          <mxGeometry width="50" height="50" relative="1" as="geometry">
            <mxPoint x="30" y="4" as="sourcePoint" />
            <mxPoint x="26" y="4" as="targetPoint" />
            <Array as="points">
              <mxPoint x="28" y="4" />
            </Array>
          </mxGeometry>
        </mxCell>
        <mxCell id="lXGe02pRSFepRyIFXycR-137" value="" style="group" parent="1" vertex="1" connectable="0">
          <mxGeometry x="32" y="164" width="80" height="28" as="geometry" />
        </mxCell>
        <mxCell id="lXGe02pRSFepRyIFXycR-138" value="" style="endArrow=none;html=1;rounded=0;movable=1;resizable=1;rotatable=1;deletable=1;editable=1;locked=0;connectable=1;" parent="lXGe02pRSFepRyIFXycR-137" edge="1">
          <mxGeometry width="50" height="50" relative="1" as="geometry">
            <mxPoint x="80" y="14" as="sourcePoint" />
            <mxPoint y="14" as="targetPoint" />
          </mxGeometry>
        </mxCell>
        <mxCell id="lXGe02pRSFepRyIFXycR-139" value="" style="endArrow=none;html=1;rounded=0;movable=1;resizable=1;rotatable=1;deletable=1;editable=1;locked=0;connectable=1;" parent="lXGe02pRSFepRyIFXycR-137" edge="1">
          <mxGeometry width="50" height="50" relative="1" as="geometry">
            <mxPoint x="50" y="28" as="sourcePoint" />
            <mxPoint x="50" as="targetPoint" />
          </mxGeometry>
        </mxCell>
        <mxCell id="lXGe02pRSFepRyIFXycR-140" value="" style="triangle;whiteSpace=wrap;html=1;fillColor=none;rounded=0;points=[];connectable=0;" parent="lXGe02pRSFepRyIFXycR-137" vertex="1">
          <mxGeometry x="30" width="20" height="28" as="geometry" />
        </mxCell>
        <mxCell id="lXGe02pRSFepRyIFXycR-141" value="" style="group" parent="1" vertex="1" connectable="0">
          <mxGeometry x="32" y="204" width="80" height="28" as="geometry" />
        </mxCell>
        <mxCell id="lXGe02pRSFepRyIFXycR-142" value="" style="endArrow=none;html=1;rounded=0;movable=1;resizable=1;rotatable=1;deletable=1;editable=1;locked=0;connectable=1;" parent="lXGe02pRSFepRyIFXycR-141" edge="1">
          <mxGeometry width="50" height="50" relative="1" as="geometry">
            <mxPoint x="80" y="14" as="sourcePoint" />
            <mxPoint y="14" as="targetPoint" />
          </mxGeometry>
        </mxCell>
        <mxCell id="lXGe02pRSFepRyIFXycR-143" value="" style="endArrow=none;html=1;rounded=0;movable=1;resizable=1;rotatable=1;deletable=1;editable=1;locked=0;connectable=1;" parent="lXGe02pRSFepRyIFXycR-141" edge="1">
          <mxGeometry width="50" height="50" relative="1" as="geometry">
            <mxPoint x="40" y="28" as="sourcePoint" />
            <mxPoint x="50" as="targetPoint" />
            <Array as="points">
              <mxPoint x="50" y="28" />
            </Array>
          </mxGeometry>
        </mxCell>
        <mxCell id="lXGe02pRSFepRyIFXycR-144" value="" style="triangle;whiteSpace=wrap;html=1;fillColor=none;rounded=0;points=[];connectable=0;container=0;" parent="lXGe02pRSFepRyIFXycR-141" vertex="1">
          <mxGeometry x="30" width="20" height="28" as="geometry" />
        </mxCell>
        <mxCell id="lXGe02pRSFepRyIFXycR-145" value="" style="group" parent="1" vertex="1" connectable="0">
          <mxGeometry x="32" y="244" width="80" height="28" as="geometry" />
        </mxCell>
        <mxCell id="lXGe02pRSFepRyIFXycR-146" value="" style="endArrow=none;html=1;rounded=0;movable=1;resizable=1;rotatable=1;deletable=1;editable=1;locked=0;connectable=1;" parent="lXGe02pRSFepRyIFXycR-145" edge="1">
          <mxGeometry width="50" height="50" relative="1" as="geometry">
            <mxPoint x="80" y="14" as="sourcePoint" />
            <mxPoint y="14" as="targetPoint" />
          </mxGeometry>
        </mxCell>
        <mxCell id="lXGe02pRSFepRyIFXycR-147" value="" style="triangle;whiteSpace=wrap;html=1;fillColor=none;rounded=0;points=[];connectable=0;container=0;" parent="lXGe02pRSFepRyIFXycR-145" vertex="1">
          <mxGeometry x="30" width="20" height="28" as="geometry" />
        </mxCell>
        <mxCell id="lXGe02pRSFepRyIFXycR-148" value="" style="endArrow=none;html=1;rounded=0;movable=1;resizable=1;rotatable=1;deletable=1;editable=1;locked=0;connectable=1;" parent="lXGe02pRSFepRyIFXycR-145" edge="1">
          <mxGeometry width="50" height="50" relative="1" as="geometry">
            <mxPoint x="40" y="28" as="sourcePoint" />
            <mxPoint x="58" as="targetPoint" />
            <Array as="points">
              <mxPoint x="50" y="28" />
              <mxPoint x="50" />
            </Array>
          </mxGeometry>
        </mxCell>
        <mxCell id="lXGe02pRSFepRyIFXycR-149" value="" style="group;flipH=0;flipV=0;" parent="1" vertex="1" connectable="0">
          <mxGeometry x="208" y="168" width="40" height="80" as="geometry" />
        </mxCell>
        <mxCell id="lXGe02pRSFepRyIFXycR-150" value="" style="endArrow=none;html=1;rounded=0;movable=1;resizable=1;rotatable=1;deletable=1;editable=1;locked=0;connectable=1;" parent="lXGe02pRSFepRyIFXycR-149" edge="1">
          <mxGeometry width="50" height="50" relative="1" as="geometry">
            <mxPoint x="24" y="32" as="sourcePoint" />
            <mxPoint x="40" as="targetPoint" />
            <Array as="points">
              <mxPoint x="40" y="24" />
            </Array>
          </mxGeometry>
        </mxCell>
        <mxCell id="lXGe02pRSFepRyIFXycR-151" value="" style="endArrow=none;html=1;rounded=0;movable=1;resizable=1;rotatable=1;deletable=1;editable=1;locked=0;connectable=1;" parent="lXGe02pRSFepRyIFXycR-149" edge="1">
          <mxGeometry width="50" height="50" relative="1" as="geometry">
            <mxPoint x="24" y="48" as="sourcePoint" />
            <mxPoint x="40" y="80" as="targetPoint" />
            <Array as="points">
              <mxPoint x="40" y="56" />
            </Array>
          </mxGeometry>
        </mxCell>
        <mxCell id="lXGe02pRSFepRyIFXycR-152" value="" style="endArrow=none;html=1;rounded=0;movable=1;resizable=1;rotatable=1;deletable=1;editable=1;locked=0;connectable=1;" parent="lXGe02pRSFepRyIFXycR-149" edge="1">
          <mxGeometry width="50" height="50" relative="1" as="geometry">
            <mxPoint x="24" y="40" as="sourcePoint" />
            <mxPoint y="40" as="targetPoint" />
          </mxGeometry>
        </mxCell>
        <mxCell id="lXGe02pRSFepRyIFXycR-153" value="" style="endArrow=none;html=1;rounded=0;movable=1;resizable=1;rotatable=1;deletable=1;editable=1;locked=0;connectable=1;" parent="lXGe02pRSFepRyIFXycR-149" edge="1">
          <mxGeometry width="50" height="50" relative="1" as="geometry">
            <mxPoint x="24" y="56" as="sourcePoint" />
            <mxPoint x="24" y="24" as="targetPoint" />
          </mxGeometry>
        </mxCell>
        <mxCell id="lXGe02pRSFepRyIFXycR-154" value="" style="triangle;whiteSpace=wrap;html=1;fillColor=#000000;connectable=0;rotation=25;" parent="lXGe02pRSFepRyIFXycR-149" vertex="1">
          <mxGeometry x="30" y="50" width="4" height="4" as="geometry" />
        </mxCell>
        <mxCell id="lXGe02pRSFepRyIFXycR-155" value="" style="group;flipH=0;flipV=0;" parent="1" vertex="1" connectable="0">
          <mxGeometry x="272" y="168" width="40" height="80" as="geometry" />
        </mxCell>
        <mxCell id="lXGe02pRSFepRyIFXycR-156" value="" style="endArrow=none;html=1;rounded=0;movable=1;resizable=1;rotatable=1;deletable=1;editable=1;locked=0;connectable=1;" parent="lXGe02pRSFepRyIFXycR-155" edge="1">
          <mxGeometry width="50" height="50" relative="1" as="geometry">
            <mxPoint x="24" y="32" as="sourcePoint" />
            <mxPoint x="40" as="targetPoint" />
            <Array as="points">
              <mxPoint x="40" y="24" />
            </Array>
          </mxGeometry>
        </mxCell>
        <mxCell id="lXGe02pRSFepRyIFXycR-157" value="" style="endArrow=none;html=1;rounded=0;movable=1;resizable=1;rotatable=1;deletable=1;editable=1;locked=0;connectable=1;" parent="lXGe02pRSFepRyIFXycR-155" edge="1">
          <mxGeometry width="50" height="50" relative="1" as="geometry">
            <mxPoint x="24" y="48" as="sourcePoint" />
            <mxPoint x="40" y="80" as="targetPoint" />
            <Array as="points">
              <mxPoint x="40" y="56" />
            </Array>
          </mxGeometry>
        </mxCell>
        <mxCell id="lXGe02pRSFepRyIFXycR-158" value="" style="endArrow=none;html=1;rounded=0;movable=1;resizable=1;rotatable=1;deletable=1;editable=1;locked=0;connectable=1;" parent="lXGe02pRSFepRyIFXycR-155" edge="1">
          <mxGeometry width="50" height="50" relative="1" as="geometry">
            <mxPoint x="24" y="40" as="sourcePoint" />
            <mxPoint y="40" as="targetPoint" />
          </mxGeometry>
        </mxCell>
        <mxCell id="lXGe02pRSFepRyIFXycR-159" value="" style="endArrow=none;html=1;rounded=0;movable=1;resizable=1;rotatable=1;deletable=1;editable=1;locked=0;connectable=1;" parent="lXGe02pRSFepRyIFXycR-155" edge="1">
          <mxGeometry width="50" height="50" relative="1" as="geometry">
            <mxPoint x="24" y="56" as="sourcePoint" />
            <mxPoint x="24" y="24" as="targetPoint" />
          </mxGeometry>
        </mxCell>
        <mxCell id="lXGe02pRSFepRyIFXycR-160" value="" style="triangle;whiteSpace=wrap;html=1;fillColor=#000000;connectable=0;rotation=25;flipH=1;container=0;" parent="lXGe02pRSFepRyIFXycR-155" vertex="1">
          <mxGeometry x="30" y="50" width="4" height="4" as="geometry" />
        </mxCell>
        <mxCell id="lXGe02pRSFepRyIFXycR-179" value="" style="group" parent="1" vertex="1" connectable="0">
          <mxGeometry x="410" y="48" width="12" height="28" as="geometry" />
        </mxCell>
        <mxCell id="lXGe02pRSFepRyIFXycR-180" value="" style="endArrow=none;html=1;rounded=0;" parent="lXGe02pRSFepRyIFXycR-179" edge="1">
          <mxGeometry width="50" height="50" relative="1" as="geometry">
            <mxPoint x="6" y="28" as="sourcePoint" />
            <mxPoint x="6" y="12" as="targetPoint" />
          </mxGeometry>
        </mxCell>
        <mxCell id="lXGe02pRSFepRyIFXycR-181" value="" style="endArrow=none;html=1;rounded=0;" parent="lXGe02pRSFepRyIFXycR-179" edge="1">
          <mxGeometry width="50" height="50" relative="1" as="geometry">
            <mxPoint x="6" y="12" as="sourcePoint" />
            <mxPoint x="6" y="12" as="targetPoint" />
            <Array as="points">
              <mxPoint x="12" y="12" />
              <mxPoint x="6" />
              <mxPoint y="12" />
            </Array>
          </mxGeometry>
        </mxCell>
        <mxCell id="lXGe02pRSFepRyIFXycR-182" value="" style="group" parent="1" vertex="1" connectable="0">
          <mxGeometry x="408" y="110" width="16" height="16" as="geometry" />
        </mxCell>
        <mxCell id="lXGe02pRSFepRyIFXycR-183" value="" style="endArrow=none;html=1;rounded=0;" parent="lXGe02pRSFepRyIFXycR-182" edge="1">
          <mxGeometry width="50" height="50" relative="1" as="geometry">
            <mxPoint x="8" y="16" as="sourcePoint" />
            <mxPoint x="8" as="targetPoint" />
          </mxGeometry>
        </mxCell>
        <mxCell id="lXGe02pRSFepRyIFXycR-184" value="" style="endArrow=none;html=1;rounded=0;" parent="lXGe02pRSFepRyIFXycR-182" edge="1">
          <mxGeometry width="50" height="50" relative="1" as="geometry">
            <mxPoint x="16" y="16" as="sourcePoint" />
            <mxPoint y="16" as="targetPoint" />
          </mxGeometry>
        </mxCell>
        <mxCell id="lXGe02pRSFepRyIFXycR-189" value="General" style="text;html=1;align=left;verticalAlign=middle;whiteSpace=wrap;rounded=0;" parent="1" vertex="1">
          <mxGeometry x="24" y="8" width="60" height="30" as="geometry" />
        </mxCell>
        <mxCell id="lXGe02pRSFepRyIFXycR-190" value="Diodes" style="text;html=1;align=left;verticalAlign=middle;whiteSpace=wrap;rounded=0;" parent="1" vertex="1">
          <mxGeometry x="24" y="132" width="60" height="30" as="geometry" />
        </mxCell>
        <mxCell id="lXGe02pRSFepRyIFXycR-192" value="Sources" style="text;html=1;align=left;verticalAlign=middle;whiteSpace=wrap;rounded=0;" parent="1" vertex="1">
          <mxGeometry x="384" y="18" width="60" height="30" as="geometry" />
        </mxCell>
        <mxCell id="sxY93o5vpmKEjjtzFpRt-1" value="" style="group;rotation=-90;" vertex="1" connectable="0" parent="1">
          <mxGeometry x="50" y="266" width="44" height="80" as="geometry" />
        </mxCell>
        <mxCell id="sxY93o5vpmKEjjtzFpRt-2" value="" style="endArrow=blockThin;html=1;rounded=0;endFill=1;strokeWidth=0.5;" edge="1" parent="sxY93o5vpmKEjjtzFpRt-1">
          <mxGeometry width="50" height="50" relative="1" as="geometry">
            <mxPoint x="18" y="30" as="sourcePoint" />
            <mxPoint x="30" y="18" as="targetPoint" />
          </mxGeometry>
        </mxCell>
        <mxCell id="sxY93o5vpmKEjjtzFpRt-3" value="" style="endArrow=blockThin;html=1;rounded=0;endFill=1;strokeWidth=0.5;" edge="1" parent="sxY93o5vpmKEjjtzFpRt-1">
          <mxGeometry width="50" height="50" relative="1" as="geometry">
            <mxPoint x="24" y="34" as="sourcePoint" />
            <mxPoint x="36" y="22" as="targetPoint" />
          </mxGeometry>
        </mxCell>
        <mxCell id="sxY93o5vpmKEjjtzFpRt-4" value="" style="endArrow=none;html=1;rounded=0;movable=1;resizable=1;rotatable=1;deletable=1;editable=1;locked=0;connectable=1;" edge="1" parent="sxY93o5vpmKEjjtzFpRt-1">
          <mxGeometry width="50" height="50" relative="1" as="geometry">
            <mxPoint x="62" y="48" as="sourcePoint" />
            <mxPoint x="-18" y="48" as="targetPoint" />
          </mxGeometry>
        </mxCell>
        <mxCell id="sxY93o5vpmKEjjtzFpRt-5" value="" style="endArrow=none;html=1;rounded=0;movable=1;resizable=1;rotatable=1;deletable=1;editable=1;locked=0;connectable=1;" edge="1" parent="sxY93o5vpmKEjjtzFpRt-1">
          <mxGeometry width="50" height="50" relative="1" as="geometry">
            <mxPoint x="32" y="62" as="sourcePoint" />
            <mxPoint x="32" y="34" as="targetPoint" />
          </mxGeometry>
        </mxCell>
        <mxCell id="sxY93o5vpmKEjjtzFpRt-6" value="" style="triangle;whiteSpace=wrap;html=1;fillColor=none;rounded=0;points=[];connectable=0;rotation=0;container=0;" vertex="1" parent="sxY93o5vpmKEjjtzFpRt-1">
          <mxGeometry x="12" y="34" width="20" height="28" as="geometry" />
        </mxCell>
        <mxCell id="sxY93o5vpmKEjjtzFpRt-7" value="" style="group;rotation=-90;" vertex="1" connectable="0" parent="1">
          <mxGeometry x="48" y="322" width="44" height="80" as="geometry" />
        </mxCell>
        <mxCell id="sxY93o5vpmKEjjtzFpRt-8" value="" style="endArrow=blockThin;html=1;rounded=0;endFill=1;strokeWidth=0.5;" edge="1" parent="sxY93o5vpmKEjjtzFpRt-7">
          <mxGeometry width="50" height="50" relative="1" as="geometry">
            <mxPoint x="30" y="18" as="sourcePoint" />
            <mxPoint x="18" y="30" as="targetPoint" />
          </mxGeometry>
        </mxCell>
        <mxCell id="sxY93o5vpmKEjjtzFpRt-9" value="" style="endArrow=blockThin;html=1;rounded=0;endFill=1;strokeWidth=0.5;" edge="1" parent="sxY93o5vpmKEjjtzFpRt-7">
          <mxGeometry width="50" height="50" relative="1" as="geometry">
            <mxPoint x="36" y="22" as="sourcePoint" />
            <mxPoint x="24" y="34" as="targetPoint" />
          </mxGeometry>
        </mxCell>
        <mxCell id="sxY93o5vpmKEjjtzFpRt-10" value="" style="endArrow=none;html=1;rounded=0;movable=1;resizable=1;rotatable=1;deletable=1;editable=1;locked=0;connectable=1;" edge="1" parent="sxY93o5vpmKEjjtzFpRt-7">
          <mxGeometry width="50" height="50" relative="1" as="geometry">
            <mxPoint x="62" y="48" as="sourcePoint" />
            <mxPoint x="-18" y="48" as="targetPoint" />
          </mxGeometry>
        </mxCell>
        <mxCell id="sxY93o5vpmKEjjtzFpRt-11" value="" style="endArrow=none;html=1;rounded=0;movable=1;resizable=1;rotatable=1;deletable=1;editable=1;locked=0;connectable=1;" edge="1" parent="sxY93o5vpmKEjjtzFpRt-7">
          <mxGeometry width="50" height="50" relative="1" as="geometry">
            <mxPoint x="32" y="62" as="sourcePoint" />
            <mxPoint x="32" y="34" as="targetPoint" />
          </mxGeometry>
        </mxCell>
        <mxCell id="sxY93o5vpmKEjjtzFpRt-12" value="" style="triangle;whiteSpace=wrap;html=1;fillColor=none;rounded=0;points=[];connectable=0;rotation=0;container=0;" vertex="1" parent="sxY93o5vpmKEjjtzFpRt-7">
          <mxGeometry x="12" y="34" width="20" height="28" as="geometry" />
        </mxCell>
        <mxCell id="sxY93o5vpmKEjjtzFpRt-18" value="Transistors" style="text;html=1;align=left;verticalAlign=middle;whiteSpace=wrap;rounded=0;" vertex="1" parent="1">
          <mxGeometry x="208" y="130" width="60" height="30" as="geometry" />
        </mxCell>
        <mxCell id="sxY93o5vpmKEjjtzFpRt-19" value="Circuit Protection" style="text;html=1;align=left;verticalAlign=middle;whiteSpace=wrap;rounded=0;" vertex="1" parent="1">
          <mxGeometry x="32" y="416" width="106" height="30" as="geometry" />
        </mxCell>
        <mxCell id="sxY93o5vpmKEjjtzFpRt-20" value="" style="group" vertex="1" connectable="0" parent="1">
          <mxGeometry x="32" y="466" width="80" height="12" as="geometry" />
        </mxCell>
        <mxCell id="sxY93o5vpmKEjjtzFpRt-21" value="" style="rounded=0;whiteSpace=wrap;html=1;movable=1;resizable=1;rotatable=1;deletable=1;editable=1;locked=0;connectable=0;container=0;rotation=0;points=[];glass=0;fillColor=none;" vertex="1" parent="sxY93o5vpmKEjjtzFpRt-20">
          <mxGeometry x="20" width="40" height="12" as="geometry" />
        </mxCell>
        <mxCell id="sxY93o5vpmKEjjtzFpRt-22" value="" style="endArrow=none;html=1;rounded=0;exitX=1;exitY=0.5;exitDx=0;exitDy=0;movable=1;resizable=1;rotatable=1;deletable=1;editable=1;locked=0;connectable=1;" edge="1" parent="sxY93o5vpmKEjjtzFpRt-20" source="sxY93o5vpmKEjjtzFpRt-21">
          <mxGeometry width="50" height="50" relative="1" as="geometry">
            <mxPoint x="80" y="76" as="sourcePoint" />
            <mxPoint x="80" y="6" as="targetPoint" />
          </mxGeometry>
        </mxCell>
        <mxCell id="sxY93o5vpmKEjjtzFpRt-23" value="" style="endArrow=none;html=1;rounded=0;movable=1;resizable=1;rotatable=1;deletable=1;editable=1;locked=0;connectable=1;" edge="1" parent="sxY93o5vpmKEjjtzFpRt-20">
          <mxGeometry width="50" height="50" relative="1" as="geometry">
            <mxPoint x="62" y="6" as="sourcePoint" />
            <mxPoint y="6" as="targetPoint" />
          </mxGeometry>
        </mxCell>
        <mxCell id="sxY93o5vpmKEjjtzFpRt-24" value="" style="group" vertex="1" connectable="0" parent="1">
          <mxGeometry x="32" y="498" width="80" height="26" as="geometry" />
        </mxCell>
        <mxCell id="sxY93o5vpmKEjjtzFpRt-25" value="" style="rounded=0;whiteSpace=wrap;html=1;movable=1;resizable=1;rotatable=1;deletable=1;editable=1;locked=0;connectable=0;container=0;rotation=0;points=[];glass=0;fillColor=none;" vertex="1" parent="sxY93o5vpmKEjjtzFpRt-24">
          <mxGeometry x="20" y="8" width="40" height="12" as="geometry" />
        </mxCell>
        <mxCell id="sxY93o5vpmKEjjtzFpRt-26" value="" style="endArrow=none;html=1;rounded=0;exitX=1;exitY=0.5;exitDx=0;exitDy=0;movable=1;resizable=1;rotatable=1;deletable=1;editable=1;locked=0;connectable=1;" edge="1" parent="sxY93o5vpmKEjjtzFpRt-24" source="sxY93o5vpmKEjjtzFpRt-25">
          <mxGeometry width="50" height="50" relative="1" as="geometry">
            <mxPoint x="80" y="84" as="sourcePoint" />
            <mxPoint x="80" y="14" as="targetPoint" />
          </mxGeometry>
        </mxCell>
        <mxCell id="sxY93o5vpmKEjjtzFpRt-27" value="" style="endArrow=none;html=1;rounded=0;exitX=0;exitY=0.5;exitDx=0;exitDy=0;movable=1;resizable=1;rotatable=1;deletable=1;editable=1;locked=0;connectable=1;" edge="1" parent="sxY93o5vpmKEjjtzFpRt-24" source="sxY93o5vpmKEjjtzFpRt-25">
          <mxGeometry width="50" height="50" relative="1" as="geometry">
            <mxPoint x="15" y="14" as="sourcePoint" />
            <mxPoint y="14" as="targetPoint" />
          </mxGeometry>
        </mxCell>
        <mxCell id="sxY93o5vpmKEjjtzFpRt-28" value="" style="endArrow=none;html=1;rounded=0;" edge="1" parent="sxY93o5vpmKEjjtzFpRt-24">
          <mxGeometry width="50" height="50" relative="1" as="geometry">
            <mxPoint x="48" as="sourcePoint" />
            <mxPoint x="60" as="targetPoint" />
          </mxGeometry>
        </mxCell>
        <mxCell id="sxY93o5vpmKEjjtzFpRt-29" value="" style="endArrow=none;html=1;rounded=0;" edge="1" parent="sxY93o5vpmKEjjtzFpRt-24">
          <mxGeometry width="50" height="50" relative="1" as="geometry">
            <mxPoint x="20" y="26" as="sourcePoint" />
            <mxPoint x="32" y="26" as="targetPoint" />
          </mxGeometry>
        </mxCell>
        <mxCell id="sxY93o5vpmKEjjtzFpRt-30" value="" style="endArrow=none;html=1;rounded=0;" edge="1" parent="sxY93o5vpmKEjjtzFpRt-24">
          <mxGeometry width="50" height="50" relative="1" as="geometry">
            <mxPoint x="48" as="sourcePoint" />
            <mxPoint x="32" y="26" as="targetPoint" />
          </mxGeometry>
        </mxCell>
        <mxCell id="lXGe02pRSFepRyIFXycR-171" value="" style="endArrow=none;html=1;rounded=0;movable=1;resizable=1;rotatable=1;deletable=1;editable=1;locked=0;connectable=1;" parent="1" edge="1">
          <mxGeometry width="50" height="50" relative="1" as="geometry">
            <mxPoint x="300" y="290" as="sourcePoint" />
            <mxPoint x="312" y="264" as="targetPoint" />
            <Array as="points">
              <mxPoint x="312" y="290" />
            </Array>
          </mxGeometry>
        </mxCell>
        <mxCell id="lXGe02pRSFepRyIFXycR-173" value="" style="endArrow=none;html=1;rounded=0;movable=1;resizable=1;rotatable=1;deletable=1;editable=1;locked=0;connectable=1;" parent="1" edge="1">
          <mxGeometry width="50" height="50" relative="1" as="geometry">
            <mxPoint x="272" y="320" as="sourcePoint" />
            <mxPoint x="296" y="288" as="targetPoint" />
            <Array as="points">
              <mxPoint x="296" y="320" />
            </Array>
          </mxGeometry>
        </mxCell>
        <mxCell id="lXGe02pRSFepRyIFXycR-174" value="" style="triangle;whiteSpace=wrap;html=1;fillColor=#000000;connectable=0;rotation=0;flipH=0;container=0;flipV=1;" parent="1" vertex="1">
          <mxGeometry x="304" y="302" width="4" height="4" as="geometry" />
        </mxCell>
        <mxCell id="lXGe02pRSFepRyIFXycR-175" value="" style="endArrow=none;html=1;rounded=0;movable=1;resizable=1;rotatable=1;deletable=1;editable=1;locked=0;connectable=1;" parent="1" edge="1">
          <mxGeometry width="50" height="50" relative="1" as="geometry">
            <mxPoint x="300" y="304" as="sourcePoint" />
            <mxPoint x="312" y="316" as="targetPoint" />
            <Array as="points">
              <mxPoint x="312" y="304" />
            </Array>
          </mxGeometry>
        </mxCell>
        <mxCell id="lXGe02pRSFepRyIFXycR-176" value="" style="endArrow=none;html=1;rounded=0;movable=1;resizable=1;rotatable=1;deletable=1;editable=1;locked=0;connectable=1;" parent="1" edge="1">
          <mxGeometry width="50" height="50" relative="1" as="geometry">
            <mxPoint x="300" y="296" as="sourcePoint" />
            <mxPoint x="300" y="288" as="targetPoint" />
          </mxGeometry>
        </mxCell>
        <mxCell id="lXGe02pRSFepRyIFXycR-177" value="" style="endArrow=none;html=1;rounded=0;movable=1;resizable=1;rotatable=1;deletable=1;editable=1;locked=0;connectable=1;" parent="1" edge="1">
          <mxGeometry width="50" height="50" relative="1" as="geometry">
            <mxPoint x="300" y="308" as="sourcePoint" />
            <mxPoint x="300" y="300" as="targetPoint" />
          </mxGeometry>
        </mxCell>
        <mxCell id="lXGe02pRSFepRyIFXycR-178" value="" style="endArrow=none;html=1;rounded=0;movable=1;resizable=1;rotatable=1;deletable=1;editable=1;locked=0;connectable=1;" parent="1" edge="1">
          <mxGeometry width="50" height="50" relative="1" as="geometry">
            <mxPoint x="300" y="320" as="sourcePoint" />
            <mxPoint x="300" y="312" as="targetPoint" />
          </mxGeometry>
        </mxCell>
        <mxCell id="lXGe02pRSFepRyIFXycR-172" value="" style="endArrow=none;html=1;rounded=0;movable=1;resizable=1;rotatable=1;deletable=1;editable=1;locked=0;connectable=1;" parent="1" edge="1">
          <mxGeometry width="50" height="50" relative="1" as="geometry">
            <mxPoint x="300" y="316" as="sourcePoint" />
            <mxPoint x="312" y="344" as="targetPoint" />
            <Array as="points">
              <mxPoint x="312" y="316" />
            </Array>
          </mxGeometry>
        </mxCell>
        <mxCell id="lXGe02pRSFepRyIFXycR-162" value="" style="endArrow=none;html=1;rounded=0;movable=1;resizable=1;rotatable=1;deletable=1;editable=1;locked=0;connectable=1;" parent="1" edge="1">
          <mxGeometry width="50" height="50" relative="1" as="geometry">
            <mxPoint x="236" y="292" as="sourcePoint" />
            <mxPoint x="248" y="264" as="targetPoint" />
            <Array as="points">
              <mxPoint x="248" y="292" />
            </Array>
          </mxGeometry>
        </mxCell>
        <mxCell id="lXGe02pRSFepRyIFXycR-164" value="" style="endArrow=none;html=1;rounded=0;movable=1;resizable=1;rotatable=1;deletable=1;editable=1;locked=0;connectable=1;" parent="1" edge="1">
          <mxGeometry width="50" height="50" relative="1" as="geometry">
            <mxPoint x="208" y="320" as="sourcePoint" />
            <mxPoint x="232" y="288" as="targetPoint" />
            <Array as="points">
              <mxPoint x="232" y="320" />
            </Array>
          </mxGeometry>
        </mxCell>
        <mxCell id="lXGe02pRSFepRyIFXycR-165" value="" style="triangle;whiteSpace=wrap;html=1;fillColor=#000000;connectable=0;rotation=0;flipH=1;container=0;" parent="1" vertex="1">
          <mxGeometry x="240" y="302" width="4" height="4" as="geometry" />
        </mxCell>
        <mxCell id="lXGe02pRSFepRyIFXycR-166" value="" style="endArrow=none;html=1;rounded=0;movable=1;resizable=1;rotatable=1;deletable=1;editable=1;locked=0;connectable=1;" parent="1" edge="1">
          <mxGeometry width="50" height="50" relative="1" as="geometry">
            <mxPoint x="236" y="304" as="sourcePoint" />
            <mxPoint x="248" y="316" as="targetPoint" />
            <Array as="points">
              <mxPoint x="248" y="304" />
            </Array>
          </mxGeometry>
        </mxCell>
        <mxCell id="lXGe02pRSFepRyIFXycR-167" value="" style="endArrow=none;html=1;rounded=0;movable=1;resizable=1;rotatable=1;deletable=1;editable=1;locked=0;connectable=1;" parent="1" edge="1">
          <mxGeometry width="50" height="50" relative="1" as="geometry">
            <mxPoint x="236" y="296" as="sourcePoint" />
            <mxPoint x="236" y="288" as="targetPoint" />
          </mxGeometry>
        </mxCell>
        <mxCell id="lXGe02pRSFepRyIFXycR-168" value="" style="endArrow=none;html=1;rounded=0;movable=1;resizable=1;rotatable=1;deletable=1;editable=1;locked=0;connectable=1;" parent="1" edge="1">
          <mxGeometry width="50" height="50" relative="1" as="geometry">
            <mxPoint x="236" y="308" as="sourcePoint" />
            <mxPoint x="236" y="300" as="targetPoint" />
          </mxGeometry>
        </mxCell>
        <mxCell id="lXGe02pRSFepRyIFXycR-169" value="" style="endArrow=none;html=1;rounded=0;movable=1;resizable=1;rotatable=1;deletable=1;editable=1;locked=0;connectable=1;" parent="1" edge="1">
          <mxGeometry width="50" height="50" relative="1" as="geometry">
            <mxPoint x="236" y="320" as="sourcePoint" />
            <mxPoint x="236" y="312" as="targetPoint" />
          </mxGeometry>
        </mxCell>
        <mxCell id="lXGe02pRSFepRyIFXycR-163" value="" style="endArrow=none;html=1;rounded=0;movable=1;resizable=1;rotatable=1;deletable=1;editable=1;locked=0;connectable=1;" parent="1" edge="1">
          <mxGeometry width="50" height="50" relative="1" as="geometry">
            <mxPoint x="236" y="316" as="sourcePoint" />
            <mxPoint x="248" y="344" as="targetPoint" />
            <Array as="points">
              <mxPoint x="248" y="316" />
            </Array>
          </mxGeometry>
        </mxCell>
        <mxCell id="sxY93o5vpmKEjjtzFpRt-31" value="" style="group" vertex="1" connectable="0" parent="1">
          <mxGeometry x="448" y="48" width="32" height="80" as="geometry" />
        </mxCell>
        <mxCell id="sxY93o5vpmKEjjtzFpRt-32" value="" style="ellipse;whiteSpace=wrap;html=1;aspect=fixed;fillColor=none;points=[];" vertex="1" parent="sxY93o5vpmKEjjtzFpRt-31">
          <mxGeometry y="24" width="32" height="32" as="geometry" />
        </mxCell>
        <mxCell id="sxY93o5vpmKEjjtzFpRt-33" value="" style="endArrow=none;html=1;rounded=0;" edge="1" parent="sxY93o5vpmKEjjtzFpRt-31">
          <mxGeometry width="50" height="50" relative="1" as="geometry">
            <mxPoint x="16" y="80" as="sourcePoint" />
            <mxPoint x="16" as="targetPoint" />
          </mxGeometry>
        </mxCell>
        <mxCell id="sxY93o5vpmKEjjtzFpRt-34" value="" style="group" vertex="1" connectable="0" parent="1">
          <mxGeometry x="488" y="48" width="32" height="80" as="geometry" />
        </mxCell>
        <mxCell id="sxY93o5vpmKEjjtzFpRt-35" value="" style="ellipse;whiteSpace=wrap;html=1;aspect=fixed;fillColor=none;points=[];" vertex="1" parent="sxY93o5vpmKEjjtzFpRt-34">
          <mxGeometry y="24" width="32" height="32" as="geometry" />
        </mxCell>
        <mxCell id="sxY93o5vpmKEjjtzFpRt-36" value="" style="endArrow=none;html=1;rounded=0;" edge="1" parent="sxY93o5vpmKEjjtzFpRt-34">
          <mxGeometry width="50" height="50" relative="1" as="geometry">
            <mxPoint x="16" y="24" as="sourcePoint" />
            <mxPoint x="16" as="targetPoint" />
          </mxGeometry>
        </mxCell>
        <mxCell id="sxY93o5vpmKEjjtzFpRt-37" value="" style="endArrow=none;html=1;rounded=0;" edge="1" parent="sxY93o5vpmKEjjtzFpRt-34">
          <mxGeometry width="50" height="50" relative="1" as="geometry">
            <mxPoint x="15.930000000000064" y="80" as="sourcePoint" />
            <mxPoint x="15.930000000000064" y="56" as="targetPoint" />
          </mxGeometry>
        </mxCell>
        <mxCell id="sxY93o5vpmKEjjtzFpRt-38" value="" style="endArrow=none;html=1;rounded=0;" edge="1" parent="sxY93o5vpmKEjjtzFpRt-34">
          <mxGeometry width="50" height="50" relative="1" as="geometry">
            <mxPoint x="32" y="39.92999999999995" as="sourcePoint" />
            <mxPoint y="39.92999999999995" as="targetPoint" />
          </mxGeometry>
        </mxCell>
        <mxCell id="sxY93o5vpmKEjjtzFpRt-46" value="" style="group" vertex="1" connectable="0" parent="1">
          <mxGeometry x="24" y="64" width="80" height="30" as="geometry" />
        </mxCell>
        <mxCell id="sxY93o5vpmKEjjtzFpRt-47" value="" style="rounded=0;whiteSpace=wrap;html=1;movable=1;resizable=1;rotatable=1;deletable=1;editable=1;locked=0;connectable=0;container=0;rotation=0;points=[];glass=0;fillColor=none;" vertex="1" parent="sxY93o5vpmKEjjtzFpRt-46">
          <mxGeometry x="20" y="18" width="40" height="12" as="geometry" />
        </mxCell>
        <mxCell id="sxY93o5vpmKEjjtzFpRt-48" value="" style="endArrow=none;html=1;rounded=0;exitX=1;exitY=0.5;exitDx=0;exitDy=0;movable=1;resizable=1;rotatable=1;deletable=1;editable=1;locked=0;connectable=1;" edge="1" parent="sxY93o5vpmKEjjtzFpRt-46" source="sxY93o5vpmKEjjtzFpRt-47">
          <mxGeometry width="50" height="50" relative="1" as="geometry">
            <mxPoint x="80" y="94" as="sourcePoint" />
            <mxPoint x="80" y="24" as="targetPoint" />
          </mxGeometry>
        </mxCell>
        <mxCell id="sxY93o5vpmKEjjtzFpRt-49" value="" style="endArrow=none;html=1;rounded=0;exitX=0;exitY=0.5;exitDx=0;exitDy=0;movable=1;resizable=1;rotatable=1;deletable=1;editable=1;locked=0;connectable=1;" edge="1" parent="sxY93o5vpmKEjjtzFpRt-46" source="sxY93o5vpmKEjjtzFpRt-47">
          <mxGeometry width="50" height="50" relative="1" as="geometry">
            <mxPoint x="15" y="24" as="sourcePoint" />
            <mxPoint y="24" as="targetPoint" />
          </mxGeometry>
        </mxCell>
        <mxCell id="sxY93o5vpmKEjjtzFpRt-50" value="" style="endArrow=none;html=1;rounded=0;movable=1;resizable=1;rotatable=1;deletable=1;editable=1;locked=0;connectable=1;startArrow=blockThin;startFill=1;" edge="1" parent="sxY93o5vpmKEjjtzFpRt-46">
          <mxGeometry width="50" height="50" relative="1" as="geometry">
            <mxPoint x="40" y="18" as="sourcePoint" />
            <mxPoint x="40" as="targetPoint" />
          </mxGeometry>
        </mxCell>
        <mxCell id="sxY93o5vpmKEjjtzFpRt-51" value="Amps" style="text;html=1;align=left;verticalAlign=middle;whiteSpace=wrap;rounded=0;" vertex="1" parent="1">
          <mxGeometry x="408" y="168" width="60" height="30" as="geometry" />
        </mxCell>
        <mxCell id="sxY93o5vpmKEjjtzFpRt-52" value="" style="group" vertex="1" connectable="0" parent="1">
          <mxGeometry x="416" y="208.00000000000006" width="112" height="80" as="geometry" />
        </mxCell>
        <mxCell id="sxY93o5vpmKEjjtzFpRt-53" value="" style="triangle;whiteSpace=wrap;html=1;points=[];fillColor=none;connectable=0;" vertex="1" parent="sxY93o5vpmKEjjtzFpRt-52">
          <mxGeometry x="16" width="80" height="80" as="geometry" />
        </mxCell>
        <mxCell id="sxY93o5vpmKEjjtzFpRt-54" value="" style="endArrow=none;html=1;rounded=0;" edge="1" parent="sxY93o5vpmKEjjtzFpRt-52">
          <mxGeometry width="50" height="50" relative="1" as="geometry">
            <mxPoint x="16" y="16" as="sourcePoint" />
            <mxPoint y="16" as="targetPoint" />
          </mxGeometry>
        </mxCell>
        <mxCell id="sxY93o5vpmKEjjtzFpRt-55" value="" style="endArrow=none;html=1;rounded=0;" edge="1" parent="sxY93o5vpmKEjjtzFpRt-52">
          <mxGeometry width="50" height="50" relative="1" as="geometry">
            <mxPoint x="16" y="64" as="sourcePoint" />
            <mxPoint y="64" as="targetPoint" />
          </mxGeometry>
        </mxCell>
        <mxCell id="sxY93o5vpmKEjjtzFpRt-56" value="" style="endArrow=none;html=1;rounded=0;" edge="1" parent="sxY93o5vpmKEjjtzFpRt-52">
          <mxGeometry width="50" height="50" relative="1" as="geometry">
            <mxPoint x="32" y="64" as="sourcePoint" />
            <mxPoint x="24" y="64" as="targetPoint" />
          </mxGeometry>
        </mxCell>
        <mxCell id="sxY93o5vpmKEjjtzFpRt-57" value="" style="endArrow=none;html=1;rounded=0;" edge="1" parent="sxY93o5vpmKEjjtzFpRt-52">
          <mxGeometry width="50" height="50" relative="1" as="geometry">
            <mxPoint x="28" y="60" as="sourcePoint" />
            <mxPoint x="28" y="68" as="targetPoint" />
          </mxGeometry>
        </mxCell>
        <mxCell id="sxY93o5vpmKEjjtzFpRt-58" value="" style="endArrow=none;html=1;rounded=0;" edge="1" parent="sxY93o5vpmKEjjtzFpRt-52">
          <mxGeometry width="50" height="50" relative="1" as="geometry">
            <mxPoint x="32" y="16" as="sourcePoint" />
            <mxPoint x="24" y="16" as="targetPoint" />
          </mxGeometry>
        </mxCell>
        <mxCell id="sxY93o5vpmKEjjtzFpRt-59" value="" style="endArrow=none;html=1;rounded=0;" edge="1" parent="sxY93o5vpmKEjjtzFpRt-52">
          <mxGeometry width="50" height="50" relative="1" as="geometry">
            <mxPoint x="112" y="40" as="sourcePoint" />
            <mxPoint x="96" y="40" as="targetPoint" />
          </mxGeometry>
        </mxCell>
        <mxCell id="sxY93o5vpmKEjjtzFpRt-60" value="" style="group" vertex="1" connectable="0" parent="1">
          <mxGeometry x="552" y="200" width="112" height="80" as="geometry" />
        </mxCell>
        <mxCell id="sxY93o5vpmKEjjtzFpRt-61" value="" style="group" vertex="1" connectable="0" parent="sxY93o5vpmKEjjtzFpRt-60">
          <mxGeometry width="112" height="80" as="geometry" />
        </mxCell>
        <mxCell id="sxY93o5vpmKEjjtzFpRt-62" value="" style="triangle;whiteSpace=wrap;html=1;points=[];fillColor=none;connectable=0;" vertex="1" parent="sxY93o5vpmKEjjtzFpRt-61">
          <mxGeometry x="16" width="80" height="80" as="geometry" />
        </mxCell>
        <mxCell id="sxY93o5vpmKEjjtzFpRt-63" value="" style="endArrow=none;html=1;rounded=0;" edge="1" parent="sxY93o5vpmKEjjtzFpRt-61">
          <mxGeometry width="50" height="50" relative="1" as="geometry">
            <mxPoint x="16" y="16" as="sourcePoint" />
            <mxPoint y="16" as="targetPoint" />
          </mxGeometry>
        </mxCell>
        <mxCell id="sxY93o5vpmKEjjtzFpRt-64" value="" style="endArrow=none;html=1;rounded=0;" edge="1" parent="sxY93o5vpmKEjjtzFpRt-61">
          <mxGeometry width="50" height="50" relative="1" as="geometry">
            <mxPoint x="16" y="64" as="sourcePoint" />
            <mxPoint y="64" as="targetPoint" />
          </mxGeometry>
        </mxCell>
        <mxCell id="sxY93o5vpmKEjjtzFpRt-65" value="" style="endArrow=none;html=1;rounded=0;" edge="1" parent="sxY93o5vpmKEjjtzFpRt-61">
          <mxGeometry width="50" height="50" relative="1" as="geometry">
            <mxPoint x="32" y="64" as="sourcePoint" />
            <mxPoint x="24" y="64" as="targetPoint" />
          </mxGeometry>
        </mxCell>
        <mxCell id="sxY93o5vpmKEjjtzFpRt-66" value="" style="endArrow=none;html=1;rounded=0;" edge="1" parent="sxY93o5vpmKEjjtzFpRt-61">
          <mxGeometry width="50" height="50" relative="1" as="geometry">
            <mxPoint x="28" y="60" as="sourcePoint" />
            <mxPoint x="28" y="68" as="targetPoint" />
          </mxGeometry>
        </mxCell>
        <mxCell id="sxY93o5vpmKEjjtzFpRt-67" value="" style="endArrow=none;html=1;rounded=0;" edge="1" parent="sxY93o5vpmKEjjtzFpRt-61">
          <mxGeometry width="50" height="50" relative="1" as="geometry">
            <mxPoint x="32" y="16" as="sourcePoint" />
            <mxPoint x="24" y="16" as="targetPoint" />
          </mxGeometry>
        </mxCell>
        <mxCell id="sxY93o5vpmKEjjtzFpRt-68" value="" style="endArrow=none;html=1;rounded=0;" edge="1" parent="sxY93o5vpmKEjjtzFpRt-61">
          <mxGeometry width="50" height="50" relative="1" as="geometry">
            <mxPoint x="112" y="40" as="sourcePoint" />
            <mxPoint x="96" y="40" as="targetPoint" />
          </mxGeometry>
        </mxCell>
        <mxCell id="sxY93o5vpmKEjjtzFpRt-69" value="" style="endArrow=none;html=1;rounded=0;" edge="1" parent="sxY93o5vpmKEjjtzFpRt-61">
          <mxGeometry width="50" height="50" relative="1" as="geometry">
            <mxPoint x="55.93000000000001" y="60" as="sourcePoint" />
            <mxPoint x="55.93000000000001" y="80" as="targetPoint" />
          </mxGeometry>
        </mxCell>
        <mxCell id="sxY93o5vpmKEjjtzFpRt-70" value="" style="endArrow=none;html=1;rounded=0;" edge="1" parent="sxY93o5vpmKEjjtzFpRt-60">
          <mxGeometry width="50" height="50" relative="1" as="geometry">
            <mxPoint x="56" as="sourcePoint" />
            <mxPoint x="56" y="20" as="targetPoint" />
          </mxGeometry>
        </mxCell>
        <mxCell id="sxY93o5vpmKEjjtzFpRt-71" value="" style="group" vertex="1" connectable="0" parent="1">
          <mxGeometry x="416" y="328" width="112" height="80" as="geometry" />
        </mxCell>
        <mxCell id="sxY93o5vpmKEjjtzFpRt-72" value="" style="triangle;whiteSpace=wrap;html=1;points=[];fillColor=none;connectable=0;container=0;" vertex="1" parent="sxY93o5vpmKEjjtzFpRt-71">
          <mxGeometry x="16" width="80" height="80" as="geometry" />
        </mxCell>
        <mxCell id="sxY93o5vpmKEjjtzFpRt-73" value="" style="endArrow=none;html=1;rounded=0;" edge="1" parent="sxY93o5vpmKEjjtzFpRt-71">
          <mxGeometry width="50" height="50" relative="1" as="geometry">
            <mxPoint x="16" y="39.89999999999998" as="sourcePoint" />
            <mxPoint y="39.89999999999998" as="targetPoint" />
          </mxGeometry>
        </mxCell>
        <mxCell id="sxY93o5vpmKEjjtzFpRt-74" value="" style="endArrow=none;html=1;rounded=0;" edge="1" parent="sxY93o5vpmKEjjtzFpRt-71">
          <mxGeometry width="50" height="50" relative="1" as="geometry">
            <mxPoint x="48" y="51.85000000000002" as="sourcePoint" />
            <mxPoint x="24" y="51.950000000000045" as="targetPoint" />
          </mxGeometry>
        </mxCell>
        <mxCell id="sxY93o5vpmKEjjtzFpRt-75" value="" style="endArrow=none;html=1;rounded=0;" edge="1" parent="sxY93o5vpmKEjjtzFpRt-71">
          <mxGeometry width="50" height="50" relative="1" as="geometry">
            <mxPoint x="36" y="51.950000000000045" as="sourcePoint" />
            <mxPoint x="36" y="27.950000000000045" as="targetPoint" />
          </mxGeometry>
        </mxCell>
        <mxCell id="sxY93o5vpmKEjjtzFpRt-76" value="" style="endArrow=none;html=1;rounded=0;" edge="1" parent="sxY93o5vpmKEjjtzFpRt-71">
          <mxGeometry width="50" height="50" relative="1" as="geometry">
            <mxPoint x="112" y="40" as="sourcePoint" />
            <mxPoint x="96" y="40" as="targetPoint" />
          </mxGeometry>
        </mxCell>
        <mxCell id="sxY93o5vpmKEjjtzFpRt-77" value="" style="endArrow=none;html=1;rounded=0;" edge="1" parent="sxY93o5vpmKEjjtzFpRt-71">
          <mxGeometry width="50" height="50" relative="1" as="geometry">
            <mxPoint x="60" y="27.950000000000045" as="sourcePoint" />
            <mxPoint x="36" y="28.050000000000068" as="targetPoint" />
          </mxGeometry>
        </mxCell>
        <mxCell id="sxY93o5vpmKEjjtzFpRt-78" value="" style="endArrow=none;html=1;rounded=0;" edge="1" parent="sxY93o5vpmKEjjtzFpRt-71">
          <mxGeometry width="50" height="50" relative="1" as="geometry">
            <mxPoint x="48" y="52" as="sourcePoint" />
            <mxPoint x="48" y="28" as="targetPoint" />
          </mxGeometry>
        </mxCell>
      </root>
    </mxGraphModel>
  </diagram>
</mxfile>
